<svg width="17" height="17" viewBox="0 0 17 17" fill="none" xmlns="http://www.w3.org/2000/svg">
<g filter="url(#filter0_d)">
<path d="M8.75 16.5C13.0302 16.5 16.5 13.0302 16.5 8.75C16.5 4.46979 13.0302 1 8.75 1C4.46979 1 1 4.46979 1 8.75C1 13.0302 4.46979 16.5 8.75 16.5Z" fill="url(#paint0_linear)"/>
</g>
<path d="M8.75 15.9187C12.7092 15.9187 15.9188 12.7092 15.9188 8.75C15.9188 4.79081 12.7092 1.58125 8.75 1.58125C4.79081 1.58125 1.58125 4.79081 1.58125 8.75C1.58125 12.7092 4.79081 15.9187 8.75 15.9187Z" fill="url(#paint1_radial)"/>
<path d="M8.76212 3.325C8.71369 3.325 8.67131 3.28869 8.67131 3.24025V1.97481C8.67131 1.92638 8.71369 1.89006 8.76212 1.89006C8.81056 1.89006 8.85294 1.92638 8.85294 1.97481V3.24025C8.84687 3.28869 8.81056 3.325 8.76212 3.325Z" fill="#F3F3F3"/>
<path d="M8.76213 3.33106C8.70763 3.33106 8.66525 3.28869 8.66525 3.24025V1.97481C8.66525 1.92637 8.70763 1.884 8.76213 1.884C8.81663 1.884 8.859 1.92637 8.859 1.97481V3.24025C8.859 3.28869 8.81056 3.33106 8.76213 3.33106ZM8.76213 1.89606C8.71975 1.89606 8.67738 1.93244 8.67738 1.97481V3.24025C8.67738 3.28262 8.71369 3.319 8.76213 3.319C8.8045 3.319 8.84688 3.28262 8.84688 3.24025V1.97481C8.84088 1.93244 8.8045 1.89606 8.76213 1.89606V1.89606Z" fill="white"/>
<path d="M9.36763 2.64688C9.31919 2.64081 9.28288 2.6045 9.28288 2.55606L9.32525 1.99294C9.33125 1.94456 9.37369 1.90819 9.42213 1.91425C9.47056 1.92031 9.50688 1.95669 9.50688 2.00513L9.4645 2.56819C9.45844 2.61663 9.41606 2.65294 9.36763 2.64694V2.64688Z" fill="#F3F3F3"/>
<path d="M9.36762 2.65294C9.31312 2.64688 9.27681 2.6045 9.27681 2.55606L9.31918 1.99294C9.32525 1.94456 9.36762 1.90219 9.42212 1.90819C9.47656 1.91425 9.51293 1.95669 9.51293 2.00506L9.47056 2.56819C9.4645 2.62269 9.42212 2.659 9.36762 2.65294ZM9.42212 1.92031C9.37975 1.92031 9.33731 1.95063 9.33731 1.993L9.29493 2.55613C9.29493 2.59844 9.32525 2.63481 9.37368 2.64081C9.41606 2.64081 9.45844 2.61056 9.45844 2.56819L9.50081 2.00506C9.50081 1.96269 9.4645 1.92638 9.42206 1.92031H9.42212Z" fill="white"/>
<path d="M9.82175 3.434C9.77325 3.42188 9.743 3.3795 9.74906 3.33106L9.99731 2.08981C10.0094 2.04144 10.0518 2.01113 10.1002 2.02325C10.1487 2.03538 10.1789 2.07775 10.1729 2.12619L9.92462 3.36744C9.91856 3.40975 9.87012 3.44006 9.82169 3.434H9.82175Z" fill="#F3F3F3"/>
<path d="M9.82175 3.44006C9.76719 3.42794 9.73694 3.3795 9.743 3.33106L9.99125 2.08981C10.0034 2.04144 10.0518 2.00506 10.1062 2.01719C10.1607 2.02931 10.1911 2.07775 10.185 2.12619L9.93675 3.36744C9.92462 3.41581 9.87619 3.44613 9.82175 3.44006ZM10.1062 2.02931C10.0639 2.02325 10.0215 2.04744 10.0094 2.08988L9.76119 3.33113C9.75512 3.37344 9.77931 3.41581 9.82775 3.428C9.87012 3.434 9.9125 3.40975 9.92462 3.36738L10.1729 2.12619C10.1789 2.07775 10.1487 2.04144 10.1062 2.02931V2.02931Z" fill="white"/>
<path d="M10.5483 2.88906C10.5367 2.88628 10.5258 2.88126 10.5163 2.87427C10.5067 2.86729 10.4986 2.85849 10.4924 2.84836C10.4862 2.83824 10.4821 2.827 10.4802 2.81528C10.4784 2.80356 10.4789 2.79159 10.4817 2.78006L10.6331 2.23519C10.6451 2.18675 10.6936 2.1625 10.742 2.17463C10.7904 2.18675 10.8208 2.23519 10.8086 2.28363L10.6573 2.82856C10.6451 2.87694 10.5967 2.90119 10.5483 2.88906Z" fill="#F3F3F3"/>
<path d="M10.5482 2.89513C10.4998 2.883 10.4635 2.8285 10.4817 2.78013L10.6331 2.23513C10.6451 2.18675 10.6996 2.15644 10.7481 2.16856C10.7965 2.18069 10.8328 2.23519 10.8147 2.28356L10.6633 2.82856C10.6512 2.87694 10.6027 2.90725 10.5483 2.89513H10.5482ZM10.7481 2.18675C10.7057 2.17463 10.6572 2.19888 10.6451 2.24125L10.4938 2.78613C10.4817 2.8285 10.5059 2.87094 10.5543 2.883C10.5967 2.89513 10.6451 2.87094 10.6572 2.82856L10.8086 2.28356C10.8147 2.24125 10.7905 2.19888 10.7481 2.18669V2.18675Z" fill="white"/>
<path d="M10.8449 3.74281C10.7965 3.72462 10.7784 3.67012 10.7965 3.62775L11.2809 2.45919C11.299 2.41681 11.3536 2.39256 11.3959 2.41681C11.4444 2.43494 11.4626 2.4895 11.4444 2.53181L10.96 3.70037C10.9419 3.74281 10.8873 3.767 10.845 3.74281H10.8449Z" fill="#F3F3F3"/>
<path d="M10.8449 3.74888C10.8217 3.74001 10.8029 3.72228 10.7927 3.69958C10.7824 3.67687 10.7816 3.65104 10.7904 3.62775L11.2748 2.45919C11.293 2.41075 11.3475 2.39256 11.402 2.41075C11.4253 2.41962 11.4441 2.43735 11.4543 2.46005C11.4645 2.48275 11.4653 2.50858 11.4565 2.53188L10.9721 3.70044C10.9479 3.74888 10.8934 3.77306 10.8449 3.74888ZM11.3959 2.42288C11.3536 2.40475 11.3051 2.42288 11.2869 2.46525L10.8026 3.63381C10.7844 3.67619 10.8086 3.71856 10.851 3.73675C10.8934 3.75488 10.9418 3.73675 10.96 3.69438L11.4444 2.52581C11.4565 2.48944 11.4383 2.441 11.3959 2.42288V2.42288Z" fill="white"/>
<path d="M11.6624 3.35531C11.6199 3.33106 11.6018 3.28263 11.6199 3.24025L11.8743 2.73775C11.8984 2.69531 11.9469 2.67713 11.9954 2.70138C12.0378 2.72563 12.0559 2.77406 12.0378 2.81638L11.7834 3.31894C11.7592 3.36131 11.7107 3.37956 11.6623 3.35531H11.6624Z" fill="#F3F3F3"/>
<path d="M11.6624 3.36137C11.6139 3.33712 11.5957 3.28262 11.6199 3.23419L11.8742 2.73169C11.8984 2.68319 11.953 2.66506 12.0014 2.68925C12.0498 2.7135 12.068 2.768 12.0437 2.81644L11.7895 3.31894C11.7652 3.36737 11.7107 3.38556 11.6623 3.36131L11.6624 3.36137ZM11.9954 2.70137C11.9529 2.68325 11.9045 2.69531 11.8864 2.73769L11.6321 3.24025C11.6139 3.27656 11.6321 3.325 11.6684 3.34925C11.7107 3.36737 11.7592 3.35531 11.7774 3.31294L12.0317 2.81037C12.0498 2.77406 12.0317 2.72562 11.9954 2.70137Z" fill="white"/>
<path d="M11.7834 4.25137C11.7411 4.22112 11.7289 4.16662 11.7592 4.13031L12.4616 3.08281C12.4858 3.04044 12.5403 3.03437 12.5826 3.05862C12.6251 3.08887 12.6371 3.14337 12.6069 3.17969L11.9045 4.22719C11.8803 4.26956 11.8258 4.28169 11.7834 4.25137Z" fill="#F3F3F3"/>
<path d="M11.7834 4.25744C11.7411 4.22719 11.7289 4.16663 11.7532 4.12425L12.4555 3.07675C12.4858 3.03438 12.5403 3.02225 12.5887 3.05256C12.6311 3.08281 12.6432 3.14338 12.619 3.18575L11.9166 4.23325C11.8864 4.27563 11.8258 4.28769 11.7834 4.25744ZM12.5826 3.06469C12.5464 3.04044 12.4918 3.0465 12.4676 3.08281L11.7653 4.13031C11.7411 4.16656 11.7531 4.21506 11.7895 4.23925C11.8258 4.2635 11.8803 4.25744 11.9045 4.22113L12.6069 3.17969C12.6311 3.14338 12.619 3.08888 12.5826 3.06469V3.06469Z" fill="white"/>
<path d="M12.6674 4.02737C12.6311 3.99706 12.619 3.94256 12.6492 3.90625L13.0004 3.46425C13.0307 3.428 13.0852 3.42187 13.1215 3.45219C13.1579 3.48244 13.1699 3.53694 13.1396 3.57325L12.7885 4.01525C12.7582 4.05156 12.7037 4.05762 12.6674 4.02737H12.6674Z" fill="#F3F3F3"/>
<path d="M12.6614 4.03344C12.619 4.00313 12.6129 3.94256 12.6432 3.90019L12.9944 3.45825C13.0246 3.41581 13.0852 3.40975 13.1276 3.44613C13.1699 3.47638 13.176 3.53694 13.1457 3.57931L12.7946 4.02131C12.7643 4.06369 12.7037 4.06975 12.6614 4.03344V4.03344ZM13.1154 3.45819C13.0792 3.42794 13.0307 3.434 13.0004 3.47031L12.6492 3.91231C12.6251 3.94863 12.6311 3.99706 12.6674 4.02731C12.7037 4.05763 12.7522 4.05156 12.7824 4.01525L13.1336 3.57325C13.1579 3.53694 13.1517 3.48244 13.1155 3.45825L13.1154 3.45819Z" fill="white"/>
<path d="M12.6069 4.93556C12.5706 4.89925 12.5706 4.84475 12.6069 4.81444L13.5029 3.92444C13.5393 3.88812 13.5938 3.89412 13.6241 3.92444C13.6543 3.95469 13.6604 4.01525 13.6241 4.0455L12.7341 4.93556C12.6977 4.97187 12.6432 4.97187 12.6069 4.93556V4.93556Z" fill="#F3F3F3"/>
<path d="M12.6008 4.94162C12.5833 4.92386 12.5736 4.89994 12.5736 4.87503C12.5736 4.85012 12.5833 4.8262 12.6008 4.80844L13.4969 3.91837C13.5146 3.90089 13.5386 3.89109 13.5635 3.89109C13.5884 3.89109 13.6124 3.90089 13.6301 3.91837C13.6476 3.93614 13.6574 3.96006 13.6574 3.98497C13.6574 4.00988 13.6476 4.03379 13.6301 4.05156L12.734 4.94156C12.7162 4.95902 12.6923 4.96881 12.6674 4.96881C12.6425 4.96881 12.6186 4.95902 12.6008 4.94156V4.94162ZM13.6241 3.92444C13.5938 3.89412 13.5393 3.89412 13.5091 3.92444L12.6129 4.81444C12.5826 4.84475 12.5826 4.89925 12.6129 4.9295C12.6432 4.95981 12.6977 4.95981 12.7279 4.9295L13.6241 4.0395C13.6543 4.00919 13.6543 3.96075 13.6241 3.92444Z" fill="white"/>
<path d="M13.5151 4.88713C13.4848 4.85081 13.4848 4.79631 13.5211 4.766L13.951 4.40275C13.9873 4.3725 14.0418 4.3785 14.0721 4.41488C14.1024 4.45119 14.1024 4.50569 14.0661 4.53594L13.6362 4.89925C13.5998 4.9295 13.5453 4.92344 13.5151 4.88713Z" fill="#F3F3F3"/>
<path d="M13.509 4.89319C13.4727 4.85081 13.4787 4.79025 13.5151 4.76L13.9449 4.39669C13.9812 4.36037 14.0418 4.36644 14.0781 4.40881C14.1145 4.45119 14.1084 4.51175 14.0721 4.542L13.6422 4.90531C13.6059 4.94156 13.5453 4.93556 13.5091 4.89319H13.509ZM14.0661 4.41487C14.0357 4.37856 13.9873 4.37856 13.9511 4.40275L13.5211 4.76606C13.4909 4.79631 13.4848 4.84475 13.5151 4.88106C13.5453 4.91737 13.5938 4.91737 13.6301 4.89319L14.06 4.52987C14.0963 4.49962 14.0963 4.45119 14.0661 4.41487Z" fill="white"/>
<path d="M13.2729 5.759C13.2426 5.71663 13.2547 5.66213 13.2971 5.63788L14.3506 4.93556C14.393 4.91131 14.4475 4.92344 14.4717 4.95981C14.502 5.00219 14.4899 5.05669 14.4475 5.08088L13.394 5.78319C13.3576 5.80744 13.3031 5.79531 13.2729 5.759V5.759Z" fill="#F3F3F3"/>
<path d="M13.2668 5.759C13.2366 5.71663 13.2487 5.65606 13.2911 5.62581L14.3446 4.92344C14.3869 4.89319 14.4475 4.90531 14.4777 4.95375C14.5081 4.99613 14.4959 5.05669 14.4536 5.08688L13.4001 5.78931C13.3576 5.81963 13.2971 5.8075 13.2668 5.75906V5.759ZM14.4656 4.96588C14.4414 4.9295 14.393 4.91738 14.3567 4.94163L13.3031 5.64394C13.2669 5.66819 13.2547 5.71663 13.285 5.759C13.3092 5.79531 13.3576 5.80744 13.394 5.78325L14.4475 5.08088C14.4838 5.05063 14.4899 5.00213 14.4656 4.96588Z" fill="white"/>
<path d="M14.1751 5.88619C14.1508 5.84375 14.1629 5.78931 14.2053 5.76506L14.6958 5.48656C14.7381 5.46231 14.7926 5.4805 14.8168 5.52281C14.8411 5.56525 14.8289 5.61969 14.7866 5.64394L14.2961 5.9225C14.2538 5.94669 14.1993 5.92856 14.175 5.88612L14.1751 5.88619Z" fill="#F3F3F3"/>
<path d="M14.169 5.89219C14.1448 5.84375 14.1569 5.78925 14.1993 5.76506L14.6897 5.48656C14.7321 5.46231 14.7926 5.4805 14.8168 5.52281C14.8411 5.57131 14.8289 5.62581 14.7866 5.65L14.2961 5.92856C14.2538 5.95275 14.1932 5.93456 14.169 5.89219V5.89219ZM14.8108 5.52894C14.7866 5.48656 14.7381 5.47444 14.7018 5.49862L14.2114 5.77719C14.1751 5.80137 14.1629 5.84981 14.1811 5.88612C14.2053 5.9285 14.2538 5.94062 14.2901 5.91644L14.7805 5.63787C14.8168 5.61975 14.8289 5.57131 14.8108 5.52894V5.52894Z" fill="white"/>
<path d="M13.7694 6.69144C13.7512 6.643 13.7694 6.59456 13.8178 6.57644L14.9864 6.09206C15.0287 6.07387 15.0832 6.09806 15.1014 6.14044C15.1196 6.18887 15.1014 6.23731 15.0529 6.25544L13.8844 6.73981C13.842 6.758 13.7876 6.73981 13.7694 6.69144Z" fill="#F3F3F3"/>
<path d="M13.7633 6.69744C13.7452 6.64906 13.7633 6.59456 13.8118 6.57031L14.9803 6.08594C15.0036 6.07716 15.0294 6.07797 15.0521 6.08818C15.0748 6.0984 15.0925 6.11719 15.1014 6.14044C15.1196 6.18888 15.1014 6.24337 15.0529 6.26756L13.8844 6.75194C13.8612 6.76074 13.8353 6.75995 13.8126 6.74974C13.7899 6.73954 13.7722 6.72075 13.7633 6.6975V6.69744ZM15.0893 6.1465C15.0711 6.10413 15.0227 6.08594 14.9864 6.09806L13.8178 6.58244C13.7754 6.60056 13.7573 6.64906 13.7754 6.69144C13.7936 6.73381 13.842 6.752 13.8784 6.73988L15.0469 6.2555C15.0893 6.23738 15.1075 6.18888 15.0893 6.1465Z" fill="white"/>
<path d="M14.6231 6.99419C14.6049 6.94569 14.6291 6.89731 14.6776 6.87912L15.2104 6.7035C15.2528 6.68538 15.3073 6.71562 15.3194 6.758C15.3375 6.80644 15.3133 6.85487 15.2649 6.87306L14.7321 7.04869C14.6897 7.06681 14.6413 7.04262 14.6231 6.99412V6.99419Z" fill="#F3F3F3"/>
<path d="M14.617 7.00019C14.5989 6.95175 14.6231 6.89725 14.6776 6.87912L15.2104 6.7035C15.2588 6.68537 15.3133 6.71562 15.3315 6.76412C15.3496 6.8125 15.3254 6.867 15.2709 6.88519L14.7381 7.06081C14.6897 7.07287 14.6352 7.04862 14.617 7.00019ZM15.3194 6.77019C15.3072 6.72775 15.2588 6.7035 15.2164 6.71562L14.6836 6.89125C14.6412 6.90331 14.6231 6.95175 14.6352 6.99419C14.6473 7.03656 14.6957 7.06075 14.7381 7.04862L15.2709 6.87306C15.3133 6.85494 15.3315 6.8125 15.3194 6.77012V6.77019Z" fill="white"/>
<path d="M14.0782 7.71469C14.0661 7.66625 14.0963 7.61781 14.1447 7.61175L15.386 7.36956C15.4344 7.35744 15.4768 7.39375 15.4889 7.44219C15.501 7.49063 15.4707 7.53906 15.4223 7.54513L14.1811 7.78731C14.1326 7.79338 14.0842 7.76313 14.0781 7.71469H14.0782Z" fill="#F3F3F3"/>
<path d="M14.0661 7.71469C14.0539 7.66019 14.0903 7.61175 14.1387 7.59962L15.3799 7.35744C15.4284 7.34531 15.4768 7.38169 15.4889 7.43619C15.501 7.49062 15.4647 7.53906 15.4163 7.55119L14.175 7.79337C14.1266 7.8055 14.0781 7.76919 14.0661 7.71462V7.71469ZM15.4768 7.44219C15.4708 7.39981 15.4284 7.36956 15.386 7.37562L14.1448 7.61781C14.1024 7.62387 14.0721 7.67225 14.0842 7.71469C14.0903 7.75706 14.1326 7.78731 14.1751 7.78125L15.4163 7.53906C15.4586 7.52694 15.4889 7.48456 15.4768 7.44219Z" fill="white"/>
<path d="M14.8532 8.18088C14.8471 8.13244 14.8774 8.09006 14.9258 8.084L15.4828 8.01737C15.5312 8.01137 15.5737 8.04769 15.5797 8.09612C15.5857 8.14456 15.5555 8.18694 15.5071 8.193L14.95 8.25956C14.9076 8.26562 14.8592 8.22931 14.8531 8.18088H14.8532Z" fill="#F3F3F3"/>
<path d="M14.8471 8.18088C14.8411 8.12638 14.8774 8.07794 14.9258 8.07188L15.4828 8.00531C15.5313 7.99925 15.5797 8.03556 15.5858 8.09006C15.5918 8.14456 15.5555 8.193 15.5071 8.19906L14.95 8.26563C14.9016 8.27169 14.8531 8.23538 14.8471 8.18088ZM15.5797 8.09613C15.5737 8.05375 15.5313 8.01738 15.4889 8.02344L14.9319 8.09006C14.8895 8.09613 14.8592 8.1385 14.8653 8.18088C14.8713 8.22325 14.9137 8.25963 14.9561 8.25356L15.5131 8.18694C15.5555 8.18088 15.5858 8.1385 15.5798 8.09613H15.5797Z" fill="white"/>
<path d="M14.1751 8.76819C14.1751 8.71975 14.2113 8.67738 14.2598 8.67738H15.5253C15.5737 8.67738 15.61 8.71975 15.61 8.76819C15.61 8.81663 15.5737 8.859 15.5253 8.859H14.2598C14.2114 8.859 14.1751 8.81663 14.1751 8.76819Z" fill="#F3F3F3"/>
<path d="M14.169 8.76819C14.169 8.71369 14.2114 8.67131 14.2598 8.67131H15.5252C15.5737 8.67131 15.6161 8.71369 15.6161 8.76819C15.6161 8.82269 15.5737 8.86506 15.5252 8.86506H14.2598C14.2114 8.86506 14.169 8.82269 14.169 8.76819ZM15.6039 8.77425C15.6039 8.73187 15.5676 8.6895 15.5252 8.6895H14.2599C14.2175 8.6895 14.1811 8.72575 14.1811 8.77425C14.1811 8.81662 14.2175 8.859 14.2599 8.859H15.5253C15.5677 8.85294 15.604 8.81662 15.604 8.77425H15.6039Z" fill="white"/>
<path d="M14.8471 9.37969C14.8531 9.33125 14.8895 9.29494 14.9379 9.29494L15.5011 9.33731C15.5494 9.34337 15.5857 9.38575 15.5797 9.43419C15.5737 9.48262 15.5373 9.51894 15.4889 9.51894L14.9258 9.47656C14.8834 9.4705 14.8471 9.42812 14.8471 9.37969H14.8471Z" fill="#F3F3F3"/>
<path d="M14.8411 9.37969C14.8471 9.32519 14.8895 9.28888 14.9379 9.28888L15.5011 9.33125C15.5494 9.33731 15.5918 9.37969 15.5858 9.43419C15.5798 9.48869 15.5373 9.525 15.4889 9.525L14.9258 9.48263C14.8774 9.47656 14.8411 9.42813 14.8411 9.37969ZM15.5798 9.43419C15.5858 9.39181 15.5494 9.34944 15.5071 9.34944L14.9439 9.30706C14.9016 9.30706 14.8653 9.33731 14.8592 9.38581C14.8532 9.42813 14.8895 9.4705 14.9319 9.4705L15.495 9.51288C15.5373 9.51288 15.5737 9.47663 15.5798 9.43419V9.43419Z" fill="white"/>
<path d="M14.0661 9.82169C14.0782 9.77325 14.1206 9.74294 14.169 9.74906L15.4102 9.99731C15.4586 10.0094 15.4889 10.0518 15.4768 10.1002C15.4647 10.1486 15.4223 10.1789 15.3739 10.1729L14.1326 9.92462C14.0903 9.91856 14.06 9.87012 14.0661 9.82169V9.82169Z" fill="#F3F3F3"/>
<path d="M14.06 9.82169C14.0721 9.76719 14.1206 9.73694 14.169 9.74294L15.4102 9.99125C15.4586 10.0033 15.4949 10.0518 15.4828 10.1063C15.4708 10.1608 15.4223 10.1911 15.3739 10.185L14.1326 9.93675C14.0842 9.92463 14.0539 9.87619 14.06 9.82175V9.82169ZM15.4708 10.1063C15.4768 10.0639 15.4526 10.0215 15.4102 10.0094L14.1689 9.76113C14.1266 9.75513 14.0842 9.77931 14.0721 9.82775C14.0661 9.87013 14.0903 9.9125 14.1327 9.92463L15.3739 10.1729C15.4223 10.1789 15.4586 10.1486 15.4708 10.1063Z" fill="white"/>
<path d="M14.611 10.5483C14.6138 10.5367 14.6188 10.5259 14.6258 10.5163C14.6328 10.5067 14.6416 10.4986 14.6517 10.4924C14.6618 10.4862 14.673 10.4821 14.6847 10.4803C14.6965 10.4784 14.7084 10.4789 14.7199 10.4817L15.2649 10.633C15.3133 10.6451 15.3375 10.6936 15.3254 10.742C15.3227 10.7535 15.3176 10.7644 15.3107 10.774C15.3037 10.7836 15.2949 10.7917 15.2848 10.7979C15.2746 10.8041 15.2634 10.8082 15.2517 10.8101C15.2399 10.8119 15.228 10.8114 15.2164 10.8086L14.6715 10.6573C14.6231 10.6451 14.5989 10.5967 14.6109 10.5483H14.611Z" fill="#F3F3F3"/>
<path d="M14.6049 10.5483C14.617 10.4998 14.6715 10.4635 14.7199 10.4817L15.2649 10.633C15.3133 10.6451 15.3436 10.6996 15.3315 10.7481C15.3194 10.7965 15.2649 10.8328 15.2164 10.8147L14.6715 10.6633C14.6231 10.6512 14.5928 10.6028 14.6049 10.5483L14.6049 10.5483ZM15.3133 10.7481C15.3254 10.7057 15.3012 10.6573 15.2588 10.6451L14.7139 10.4938C14.6715 10.4816 14.6291 10.5059 14.617 10.5543C14.6049 10.5967 14.6291 10.6451 14.6715 10.6573L15.2164 10.8086C15.2588 10.8147 15.3012 10.7905 15.3133 10.7481Z" fill="white"/>
<path d="M13.7572 10.8389C13.7754 10.7904 13.8299 10.7723 13.8722 10.7904L15.0409 11.2748C15.0832 11.2929 15.1074 11.3475 15.0893 11.3898C15.0711 11.4383 15.0166 11.4564 14.9742 11.4383L13.8057 10.9539C13.7572 10.9358 13.7391 10.8813 13.7572 10.8389V10.8389Z" fill="#F3F3F3"/>
<path d="M13.7512 10.8328C13.7601 10.8095 13.7778 10.7907 13.8005 10.7805C13.8232 10.7703 13.849 10.7695 13.8723 10.7783L15.0409 11.2627C15.0893 11.2809 15.1074 11.3354 15.0893 11.3899C15.0804 11.4131 15.0627 11.4319 15.04 11.4422C15.0173 11.4524 14.9915 11.4532 14.9682 11.4444L13.7996 10.96C13.7512 10.9358 13.7331 10.8813 13.7512 10.8328ZM15.0772 11.3838C15.0953 11.3414 15.0772 11.293 15.0348 11.2748L13.8662 10.7904C13.8239 10.7723 13.7815 10.7965 13.7633 10.8389C13.7452 10.8813 13.7633 10.9297 13.8057 10.9479L14.9742 11.4323C15.0166 11.4444 15.0651 11.4262 15.0772 11.3838Z" fill="white"/>
<path d="M14.1508 11.6563C14.1751 11.6139 14.2234 11.5957 14.2658 11.6139L14.7684 11.8682C14.8108 11.8863 14.8289 11.9408 14.8048 11.9893C14.7805 12.0316 14.7321 12.0499 14.6897 12.0316L14.1872 11.7774C14.1448 11.7531 14.1266 11.6986 14.1508 11.6563Z" fill="#F3F3F3"/>
<path d="M14.1448 11.6502C14.169 11.6018 14.2235 11.5836 14.2719 11.6078L14.7744 11.8621C14.8229 11.8864 14.8411 11.9409 14.8168 11.9893C14.7926 12.0377 14.7381 12.0559 14.6897 12.0316L14.1872 11.7774C14.1387 11.7593 14.1206 11.6986 14.1448 11.6502V11.6502ZM14.7987 11.9832C14.8168 11.9408 14.8047 11.8924 14.7623 11.8743L14.2598 11.6199C14.2234 11.6018 14.1751 11.6199 14.1508 11.6563C14.1327 11.6986 14.1448 11.7471 14.1871 11.7653L14.6896 12.0196C14.7321 12.0377 14.7805 12.0256 14.7987 11.9832Z" fill="white"/>
<path d="M13.2608 11.7713C13.2911 11.7289 13.3395 11.7168 13.3819 11.7471L14.4354 12.4494C14.4778 12.4736 14.4838 12.5282 14.4596 12.5705C14.4293 12.6129 14.3809 12.625 14.3385 12.5948L13.285 11.8924C13.2426 11.8621 13.2305 11.8076 13.2608 11.7713Z" fill="#F3F3F3"/>
<path d="M13.2547 11.7652C13.285 11.7229 13.3456 11.7107 13.3879 11.735L14.4414 12.4373C14.4838 12.4676 14.4959 12.5221 14.4656 12.5705C14.4354 12.6129 14.3748 12.625 14.3325 12.6008L13.2789 11.8984C13.2305 11.8682 13.2244 11.8076 13.2547 11.7652ZM14.4475 12.5644C14.4717 12.5282 14.4656 12.4736 14.4294 12.4494L13.3758 11.7471C13.3395 11.7229 13.2911 11.735 13.2668 11.7713C13.2426 11.8076 13.2487 11.8621 13.2849 11.8863L14.3385 12.5887C14.3748 12.6129 14.4233 12.6008 14.4475 12.5645V12.5644Z" fill="white"/>
<path d="M13.4848 12.6493C13.5151 12.6129 13.5696 12.6008 13.6059 12.6311L14.0479 12.9762C14.0842 13.0064 14.0902 13.0609 14.06 13.0973C14.0297 13.1336 13.9752 13.1458 13.9389 13.1154L13.4969 12.7703C13.4606 12.7401 13.4545 12.6856 13.4848 12.6493V12.6493Z" fill="#F3F3F3"/>
<path d="M13.4787 12.6432C13.509 12.6008 13.5696 12.5948 13.6119 12.6251L14.0539 12.9701C14.0963 13.0004 14.1024 13.0609 14.0721 13.1033C14.0418 13.1458 13.9812 13.1518 13.9389 13.1215L13.4969 12.7764C13.4545 12.7461 13.4485 12.6856 13.4787 12.6432ZM14.06 13.0973C14.0902 13.0609 14.0842 13.0125 14.0479 12.9823L13.6059 12.6371C13.5696 12.6129 13.5211 12.619 13.4909 12.6553C13.4606 12.6916 13.4666 12.7401 13.5029 12.7703L13.9449 13.1154C13.9812 13.1397 14.0297 13.1336 14.0599 13.0973H14.06Z" fill="white"/>
<path d="M12.5826 12.5887C12.619 12.5524 12.6735 12.5524 12.7037 12.5887L13.5998 13.4787C13.6362 13.5151 13.6301 13.5696 13.5998 13.5998C13.5636 13.6361 13.509 13.6361 13.4787 13.5998L12.5826 12.7098C12.5524 12.6795 12.5524 12.6189 12.5826 12.5887V12.5887Z" fill="#F3F3F3"/>
<path d="M12.5826 12.5826C12.6004 12.5651 12.6243 12.5553 12.6492 12.5553C12.6742 12.5553 12.6981 12.5651 12.7159 12.5826L13.6119 13.4726C13.6294 13.4904 13.6392 13.5143 13.6392 13.5393C13.6392 13.5642 13.6294 13.5881 13.6119 13.6059C13.5942 13.6233 13.5703 13.6331 13.5453 13.6331C13.5204 13.6331 13.4965 13.6233 13.4787 13.6059L12.5826 12.7159C12.5402 12.6795 12.5402 12.619 12.5826 12.5826ZM13.5998 13.5938C13.6301 13.5635 13.6301 13.509 13.5998 13.4788L12.7037 12.5887C12.6735 12.5584 12.619 12.5584 12.5887 12.5887C12.5584 12.6189 12.5584 12.6734 12.5887 12.7037L13.4848 13.5938C13.5151 13.6301 13.5636 13.6301 13.5998 13.5938Z" fill="white"/>
<path d="M12.6371 13.4908C12.6735 13.4606 12.7279 13.4606 12.7582 13.4969L13.1276 13.9207C13.1578 13.9571 13.1518 14.0116 13.1154 14.0418C13.0792 14.0721 13.0246 14.0721 12.9944 14.0358L12.625 13.6119C12.5947 13.5817 12.6008 13.5272 12.6371 13.4908V13.4908Z" fill="#F3F3F3"/>
<path d="M12.6311 13.4908C12.6735 13.4546 12.728 13.4606 12.7642 13.4969L13.1336 13.9207C13.1699 13.9571 13.1639 14.0176 13.1215 14.0539C13.0791 14.0902 13.0246 14.0842 12.9883 14.0479L12.6189 13.6241C12.5887 13.5817 12.5887 13.5211 12.6311 13.4908H12.6311ZM13.1155 14.0418C13.1517 14.0116 13.1517 13.9631 13.1276 13.9268L12.7582 13.5029C12.7279 13.4727 12.6795 13.4666 12.6432 13.4969C12.6069 13.5272 12.6069 13.5756 12.6311 13.6119L13.0004 14.0357C13.0307 14.0721 13.0792 14.0721 13.1154 14.0418H13.1155Z" fill="white"/>
<path d="M11.7652 13.2608C11.8076 13.2305 11.8621 13.2426 11.8864 13.285L12.5886 14.3324C12.6129 14.3748 12.6007 14.4293 12.5644 14.4536C12.5221 14.4838 12.4676 14.4717 12.4433 14.4293L11.741 13.3818C11.7167 13.3395 11.7289 13.2849 11.7652 13.2608H11.7652Z" fill="#F3F3F3"/>
<path d="M11.7652 13.2547C11.8076 13.2244 11.8682 13.2366 11.8984 13.2789L12.6008 14.3264C12.6311 14.3688 12.6189 14.4293 12.5706 14.4596C12.5281 14.4899 12.4676 14.4778 12.4373 14.4354L11.735 13.3879C11.7047 13.3395 11.7169 13.285 11.7652 13.2548V13.2547ZM12.5645 14.4475C12.6008 14.4233 12.6129 14.3748 12.5887 14.3385L11.8864 13.291C11.8621 13.2548 11.8137 13.2486 11.7714 13.2729C11.735 13.2971 11.7229 13.3455 11.7471 13.3819L12.4494 14.4293C12.4737 14.4596 12.5282 14.4717 12.5644 14.4474L12.5645 14.4475Z" fill="white"/>
<path d="M11.6381 14.1568C11.6805 14.1326 11.735 14.1447 11.7592 14.1871L12.0378 14.6776C12.0619 14.7199 12.0438 14.7744 12.0014 14.7986C11.959 14.8229 11.9045 14.8107 11.8803 14.7684L11.6018 14.2779C11.5836 14.2356 11.5958 14.1811 11.6381 14.1569L11.6381 14.1568Z" fill="#F3F3F3"/>
<path d="M11.6381 14.1508C11.6866 14.1266 11.7411 14.1387 11.7653 14.1811L12.0438 14.6715C12.068 14.7139 12.0559 14.7744 12.0075 14.7986C11.959 14.8229 11.9045 14.8107 11.8803 14.7684L11.6018 14.2779C11.5776 14.2356 11.5897 14.1811 11.6381 14.1508H11.6381ZM12.0014 14.7926C12.0378 14.7684 12.0559 14.7199 12.0317 14.6836L11.7532 14.1932C11.7289 14.1569 11.6805 14.1447 11.6442 14.1629C11.6078 14.1871 11.5897 14.2356 11.6139 14.2719L11.8924 14.7623C11.9106 14.7986 11.9651 14.8168 12.0014 14.7926V14.7926Z" fill="white"/>
<path d="M10.8328 13.7573C10.8813 13.7391 10.9297 13.7573 10.9479 13.7996L11.4383 14.9682C11.4564 15.0106 11.4323 15.0651 11.3899 15.0832C11.3475 15.1014 11.293 15.0832 11.2749 15.0408L10.7844 13.8723C10.7663 13.8299 10.7904 13.7754 10.8328 13.7573Z" fill="#F3F3F3"/>
<path d="M10.8328 13.7512C10.8813 13.7331 10.9358 13.7512 10.96 13.7996L11.4504 14.9682C11.4592 14.9915 11.4584 15.0173 11.4482 15.04C11.438 15.0627 11.4192 15.0804 11.3959 15.0893C11.3475 15.1074 11.293 15.0893 11.2688 15.0408L10.7784 13.8723C10.7602 13.8299 10.7844 13.7754 10.8328 13.7512V13.7512ZM11.3838 15.0772C11.4262 15.059 11.4444 15.0106 11.4262 14.9743L10.9358 13.8057C10.9176 13.7633 10.8692 13.7451 10.8268 13.7633C10.7844 13.7814 10.7662 13.8299 10.7844 13.8663L11.2748 15.0348C11.2991 15.0772 11.3414 15.0953 11.3838 15.0772Z" fill="white"/>
<path d="M10.5361 14.617C10.5846 14.5989 10.633 14.6231 10.6512 14.6715L10.8268 15.2043C10.8449 15.2467 10.8147 15.3012 10.7723 15.3133C10.7239 15.3314 10.6754 15.3073 10.6573 15.2588L10.4817 14.726C10.4636 14.6836 10.4878 14.6352 10.5362 14.617H10.5361Z" fill="#F3F3F3"/>
<path d="M10.5301 14.6109C10.5534 14.6022 10.5792 14.603 10.6019 14.6132C10.6246 14.6234 10.6423 14.6422 10.6512 14.6654L10.8268 15.1982C10.8449 15.2467 10.8147 15.3012 10.7662 15.3194C10.7429 15.3282 10.7171 15.3273 10.6944 15.3171C10.6717 15.3069 10.654 15.2881 10.6451 15.2649L10.4696 14.7321C10.4574 14.6836 10.4817 14.6291 10.5301 14.6109ZM10.7663 15.3072C10.8086 15.2951 10.8328 15.2467 10.8208 15.2043L10.6451 14.6715C10.6331 14.6291 10.5846 14.6109 10.5423 14.6231C10.4998 14.6352 10.4756 14.6836 10.4878 14.726L10.6633 15.2588C10.6664 15.2691 10.6716 15.2786 10.6786 15.2867C10.6856 15.2949 10.6943 15.3014 10.704 15.306C10.7137 15.3106 10.7243 15.313 10.735 15.3133C10.7457 15.3135 10.7564 15.3114 10.7663 15.3072V15.3072Z" fill="white"/>
<path d="M9.82175 14.0661C9.87013 14.0539 9.91863 14.0842 9.92463 14.1326L10.1789 15.3739C10.1911 15.4223 10.1547 15.4647 10.1062 15.4768C10.0579 15.4889 10.0094 15.4586 10.0034 15.4102L9.749 14.1689C9.743 14.1266 9.77325 14.0781 9.82169 14.066L9.82175 14.0661Z" fill="#F3F3F3"/>
<path d="M9.82175 14.0599C9.87619 14.0479 9.92462 14.0842 9.93675 14.1326L10.1911 15.3739C10.2032 15.4222 10.1668 15.4767 10.1184 15.4828C10.0639 15.4949 10.0154 15.4586 10.0034 15.4102L9.749 14.1689C9.73694 14.1205 9.76725 14.0721 9.82169 14.06L9.82175 14.0599ZM10.1062 15.4707C10.1487 15.4647 10.1789 15.4222 10.1729 15.3738L9.91856 14.1326C9.91256 14.0902 9.86412 14.06 9.82169 14.0721C9.77931 14.0781 9.74906 14.1205 9.75512 14.1689L10.0094 15.4102C10.0215 15.4526 10.0639 15.4767 10.1063 15.4707L10.1062 15.4707Z" fill="white"/>
<path d="M9.36156 14.8531C9.41 14.8471 9.45237 14.8774 9.4645 14.9258L9.53712 15.4828C9.54319 15.5312 9.50687 15.5736 9.45837 15.5797C9.41 15.5857 9.36762 15.5555 9.3555 15.5071L9.28287 14.95C9.27681 14.9016 9.31312 14.8592 9.36156 14.8531Z" fill="#F3F3F3"/>
<path d="M9.36156 14.8471C9.41606 14.8411 9.4645 14.8774 9.47056 14.9258L9.54319 15.4828C9.54925 15.5312 9.51294 15.5797 9.45844 15.5857C9.40394 15.5918 9.3555 15.5555 9.34944 15.507L9.27681 14.95C9.27075 14.9016 9.30706 14.8531 9.36156 14.8471ZM9.45238 15.5736C9.49475 15.5676 9.53113 15.5252 9.52506 15.4828L9.45238 14.9258C9.44631 14.8834 9.40394 14.8531 9.36156 14.8592C9.31919 14.8652 9.28281 14.9076 9.28888 14.95L9.36156 15.5071C9.36763 15.5494 9.41 15.5797 9.45238 15.5736Z" fill="white"/>
<path d="M8.73794 14.175C8.78638 14.175 8.82875 14.2114 8.82875 14.2598V15.5252C8.82875 15.5736 8.78638 15.61 8.73794 15.61C8.6895 15.61 8.64713 15.5736 8.64713 15.5252V14.2598C8.65319 14.2114 8.6895 14.175 8.73794 14.175Z" fill="#F3F3F3"/>
<path d="M8.73794 14.1689C8.79244 14.1689 8.83481 14.2113 8.83481 14.2598V15.5252C8.83481 15.5736 8.79244 15.616 8.73794 15.616C8.68344 15.616 8.64106 15.5736 8.64106 15.5252V14.2598C8.64106 14.2114 8.6895 14.1689 8.73794 14.1689ZM8.73794 15.6039C8.78031 15.6039 8.82268 15.5676 8.82268 15.5252V14.2598C8.82268 14.2174 8.78637 14.1811 8.73794 14.1811C8.69556 14.1811 8.65318 14.2174 8.65318 14.2598V15.5252C8.65918 15.5676 8.69556 15.6039 8.73794 15.6039Z" fill="white"/>
<path d="M8.13244 14.8531C8.18087 14.8592 8.21719 14.8955 8.21719 14.9439L8.17481 15.5071C8.16881 15.5555 8.12637 15.5918 8.07794 15.5858C8.0295 15.5797 7.99319 15.5434 7.99319 15.4949L8.03556 14.9318C8.04162 14.8834 8.084 14.8471 8.13244 14.8531Z" fill="#F3F3F3"/>
<path d="M8.13243 14.8471C8.18693 14.8531 8.22325 14.8955 8.22325 14.9439L8.18087 15.5071C8.17481 15.5555 8.13243 15.5979 8.07793 15.5918C8.0235 15.5858 7.98712 15.5434 7.98712 15.4949L8.0295 14.9318C8.03556 14.8774 8.07793 14.8411 8.13243 14.8471ZM8.07793 15.5797C8.12031 15.5797 8.16275 15.5494 8.16275 15.5071L8.20512 14.9439C8.20512 14.9016 8.17481 14.8653 8.12637 14.8592C8.084 14.8592 8.04162 14.8894 8.04162 14.9319L7.99925 15.4949C7.99925 15.5373 8.03556 15.5737 8.078 15.5797H8.07793Z" fill="white"/>
<path d="M7.67837 14.0661C7.72681 14.0781 7.75706 14.1205 7.751 14.1689L7.50275 15.4102C7.49062 15.4586 7.44825 15.4889 7.39981 15.4767C7.35137 15.4647 7.32112 15.4223 7.32719 15.3738L7.57544 14.1326C7.5815 14.0903 7.62994 14.06 7.67837 14.0661Z" fill="#F3F3F3"/>
<path d="M7.67838 14.0599C7.73282 14.0721 7.76313 14.1206 7.75707 14.1689L7.50882 15.4102C7.49669 15.4586 7.44825 15.4949 7.39382 15.4828C7.33932 15.4707 7.309 15.4223 7.31507 15.3738L7.56332 14.1326C7.57544 14.0842 7.62388 14.0539 7.67832 14.06L7.67838 14.0599ZM7.39382 15.4707C7.43619 15.4768 7.47857 15.4526 7.49069 15.4102L7.73888 14.1689C7.74494 14.1266 7.72075 14.0842 7.67232 14.0721C7.62994 14.0661 7.58757 14.0903 7.57544 14.1327L7.32719 15.3738C7.32113 15.4223 7.35138 15.4586 7.39382 15.4707V15.4707Z" fill="white"/>
<path d="M6.95175 14.6109C7.00025 14.6231 7.0305 14.6715 7.01838 14.7199L6.867 15.2649C6.85494 15.3133 6.8065 15.3375 6.75807 15.3254C6.74653 15.3227 6.73565 15.3176 6.72606 15.3107C6.71646 15.3037 6.70834 15.2949 6.70215 15.2848C6.69596 15.2746 6.69183 15.2634 6.68999 15.2517C6.68816 15.2399 6.68865 15.228 6.69144 15.2164L6.84282 14.6715C6.85494 14.6231 6.90338 14.5989 6.95182 14.6109H6.95175Z" fill="#F3F3F3"/>
<path d="M6.95175 14.6049C7.00025 14.617 7.03656 14.6715 7.01838 14.7199L6.867 15.2649C6.85494 15.3133 6.80044 15.3436 6.752 15.3314C6.70356 15.3194 6.66725 15.2649 6.68538 15.2164L6.83675 14.6715C6.84888 14.6231 6.89731 14.5928 6.95175 14.6049V14.6049ZM6.752 15.3133C6.79438 15.3254 6.84281 15.3012 6.85494 15.2588L7.00625 14.7139C7.01838 14.6715 6.99419 14.6291 6.94575 14.617C6.90338 14.6049 6.85494 14.6291 6.84281 14.6715L6.69144 15.2164C6.68538 15.2588 6.70956 15.3012 6.752 15.3133Z" fill="white"/>
<path d="M6.65512 13.7573C6.70356 13.7754 6.72169 13.8299 6.70356 13.8723L6.21919 15.0408C6.20106 15.0833 6.1465 15.1074 6.10419 15.0833C6.06175 15.059 6.0375 15.0106 6.05569 14.9682L6.54006 13.7996C6.55819 13.7573 6.61275 13.733 6.65506 13.7573H6.65512Z" fill="#F3F3F3"/>
<path d="M6.65513 13.7512C6.67839 13.7601 6.69719 13.7778 6.70741 13.8005C6.71763 13.8232 6.71842 13.849 6.70963 13.8723L6.22525 15.0408C6.20707 15.0892 6.15257 15.1074 6.09807 15.0892C6.07482 15.0804 6.05603 15.0627 6.04581 15.04C6.0356 15.0173 6.03479 14.9915 6.04357 14.9682L6.52794 13.7996C6.55219 13.7512 6.60669 13.727 6.65513 13.7512V13.7512ZM6.10413 15.0772C6.1465 15.0953 6.19494 15.0772 6.21313 15.0348L6.6975 13.8662C6.71563 13.8239 6.69144 13.7814 6.64907 13.7633C6.60669 13.7452 6.55825 13.7633 6.54007 13.8057L6.05569 14.9742C6.04357 15.0106 6.06175 15.059 6.10413 15.0772Z" fill="white"/>
<path d="M5.83775 14.1447C5.88012 14.1689 5.89825 14.2174 5.88012 14.2597L5.62581 14.7623C5.60156 14.8047 5.55312 14.8229 5.50469 14.7986C5.46231 14.7744 5.44419 14.726 5.46231 14.6836L5.71669 14.1811C5.74087 14.1387 5.78931 14.1205 5.83775 14.1447Z" fill="#F3F3F3"/>
<path d="M5.83775 14.1387C5.88619 14.1629 5.90431 14.2174 5.88013 14.2658L5.62581 14.7684C5.60156 14.8168 5.54706 14.835 5.49869 14.8108C5.45025 14.7866 5.43206 14.732 5.45631 14.6836L5.71056 14.1811C5.73481 14.1326 5.78931 14.1145 5.83775 14.1387ZM5.50475 14.7987C5.54713 14.8168 5.59556 14.8047 5.61369 14.7623L5.868 14.2598C5.88613 14.2234 5.868 14.175 5.83169 14.1508C5.78931 14.1327 5.74088 14.1448 5.72269 14.1871L5.46838 14.6896C5.45025 14.726 5.46838 14.7744 5.50475 14.7986V14.7987Z" fill="white"/>
<path d="M5.71663 13.2487C5.759 13.2789 5.77113 13.3334 5.74088 13.3697L5.0385 14.4172C5.01432 14.4596 4.95975 14.4656 4.91744 14.4414C4.87507 14.4111 4.86294 14.3567 4.89319 14.3203L5.59557 13.2728C5.61975 13.2305 5.67425 13.2184 5.71663 13.2486V13.2487Z" fill="#F3F3F3"/>
<path d="M5.71662 13.2426C5.759 13.2729 5.77112 13.3334 5.74687 13.3758L5.04456 14.4233C5.01431 14.4656 4.95981 14.4778 4.91137 14.4475C4.869 14.4172 4.85687 14.3567 4.88106 14.3143L5.58344 13.2668C5.61369 13.2244 5.67425 13.2123 5.71662 13.2426V13.2426ZM4.91744 14.4354C4.95369 14.4596 5.00825 14.4535 5.03244 14.4173L5.73481 13.3698C5.759 13.3334 5.74694 13.285 5.71056 13.2608C5.67425 13.2366 5.61975 13.2426 5.59556 13.2789L4.89319 14.3203C4.869 14.3567 4.88106 14.4111 4.91744 14.4353V14.4354Z" fill="white"/>
<path d="M4.83263 13.4727C4.869 13.5029 4.88106 13.5574 4.85081 13.5938L4.49963 14.0358C4.46938 14.0721 4.41488 14.0781 4.37856 14.0479C4.34225 14.0176 4.33013 13.9631 4.36044 13.9268L4.71156 13.4848C4.74181 13.4485 4.79631 13.4424 4.83263 13.4727Z" fill="#F3F3F3"/>
<path d="M4.83869 13.4666C4.88106 13.4969 4.88713 13.5574 4.85681 13.5998L4.50569 14.0418C4.47544 14.0842 4.41488 14.0903 4.3725 14.0539C4.33013 14.0236 4.32406 13.9631 4.35438 13.9207L4.7055 13.4787C4.73575 13.4363 4.79631 13.4303 4.83869 13.4666ZM4.38463 14.0418C4.42088 14.0721 4.46938 14.0661 4.49963 14.0297L4.85081 13.5877C4.87506 13.5514 4.86894 13.5029 4.83269 13.4727C4.79631 13.4424 4.74788 13.4484 4.71763 13.4848L4.36644 13.9267C4.34225 13.9631 4.34831 14.0176 4.38456 14.0418H4.38463Z" fill="white"/>
<path d="M4.89319 12.5645C4.9295 12.6008 4.9295 12.6553 4.89319 12.6856L3.99713 13.5756C3.96075 13.6119 3.90632 13.6059 3.876 13.5756C3.84575 13.5453 3.83969 13.4848 3.876 13.4545L4.766 12.5645C4.80238 12.5281 4.85688 12.5281 4.89319 12.5645V12.5645Z" fill="#F3F3F3"/>
<path d="M4.89925 12.5584C4.91669 12.5762 4.92647 12.6001 4.92647 12.625C4.92647 12.6499 4.91669 12.6738 4.89925 12.6916L4.00312 13.5817C3.98536 13.5991 3.96146 13.6089 3.93656 13.6089C3.91167 13.6089 3.88776 13.5991 3.87 13.5817C3.85252 13.5639 3.84272 13.54 3.84272 13.5151C3.84272 13.4901 3.85252 13.4662 3.87 13.4484L4.76606 12.5584C4.78383 12.541 4.80774 12.5312 4.83266 12.5312C4.85757 12.5312 4.88148 12.541 4.89925 12.5584V12.5584ZM3.876 13.5756C3.90625 13.6058 3.96075 13.6058 3.991 13.5756L4.88712 12.6855C4.91744 12.6552 4.91744 12.6007 4.88712 12.5705C4.85687 12.5402 4.80237 12.5402 4.77212 12.5705L3.876 13.4605C3.84575 13.4907 3.84575 13.5392 3.876 13.5755V13.5756Z" fill="white"/>
<path d="M3.985 12.6129C4.01525 12.6492 4.01525 12.7038 3.97894 12.734L3.54907 13.0973C3.51275 13.1276 3.45825 13.1215 3.42794 13.0852C3.39769 13.0488 3.39769 12.9944 3.434 12.9641L3.86388 12.6008C3.90025 12.5705 3.95469 12.5766 3.985 12.6129Z" fill="#F3F3F3"/>
<path d="M3.99106 12.6068C4.02737 12.6493 4.02131 12.7097 3.985 12.7401L3.55512 13.1033C3.51881 13.1397 3.45825 13.1336 3.42194 13.0912C3.38556 13.0488 3.39162 12.9883 3.42794 12.958L3.85787 12.5947C3.89412 12.5584 3.95475 12.5645 3.991 12.6069L3.99106 12.6068ZM3.434 13.0852C3.46431 13.1215 3.51275 13.1215 3.549 13.0973L3.97894 12.734C4.00919 12.7037 4.01525 12.6552 3.985 12.619C3.95469 12.5826 3.90625 12.5826 3.87 12.6069L3.44006 12.9701C3.40375 13.0004 3.40375 13.0489 3.434 13.0851V13.0852Z" fill="white"/>
<path d="M4.22719 11.741C4.25744 11.7834 4.24531 11.8379 4.20294 11.8621L3.14944 12.5645C3.10706 12.5887 3.05256 12.5766 3.02838 12.5403C2.99806 12.4979 3.01019 12.4434 3.05256 12.4191L4.10613 11.7168C4.1425 11.6926 4.19694 11.7047 4.22725 11.741H4.22719Z" fill="#F3F3F3"/>
<path d="M4.23325 11.741C4.2635 11.7834 4.25137 11.8439 4.209 11.8742L3.1555 12.5766C3.11312 12.6069 3.05256 12.5947 3.02231 12.5463C2.992 12.5039 3.00419 12.4434 3.0465 12.4131L4.10006 11.7107C4.14244 11.6805 4.20294 11.6926 4.23319 11.741H4.23325ZM3.03444 12.5342C3.05862 12.5705 3.10706 12.5826 3.14337 12.5584L4.19687 11.8561C4.23325 11.8319 4.24531 11.7834 4.21506 11.7411C4.19087 11.7047 4.14244 11.6926 4.10606 11.7168L3.05256 12.4192C3.01625 12.4494 3.01019 12.4979 3.03444 12.5342V12.5342Z" fill="white"/>
<path d="M3.325 11.6139C3.34925 11.6563 3.33713 11.7108 3.29475 11.735L2.80432 12.0135C2.76194 12.0377 2.70744 12.0196 2.68325 11.9772C2.659 11.9348 2.67113 11.8803 2.7135 11.8561L3.20394 11.5776C3.24632 11.5533 3.30082 11.5715 3.32507 11.6139H3.325Z" fill="#F3F3F3"/>
<path d="M3.33113 11.6078C3.35532 11.6563 3.34319 11.7108 3.30082 11.735L2.81038 12.0135C2.768 12.0377 2.70744 12.0196 2.68325 11.9772C2.659 11.9288 2.67113 11.8743 2.7135 11.85L3.20394 11.5715C3.24632 11.5473 3.30688 11.5654 3.33107 11.6078H3.33113ZM2.68925 11.9711C2.7135 12.0135 2.76194 12.0256 2.79825 12.0014L3.28869 11.7229C3.325 11.6986 3.33713 11.6502 3.319 11.6139C3.29475 11.5715 3.24632 11.5594 3.21 11.5836L2.71957 11.8621C2.68325 11.8803 2.67113 11.9288 2.68932 11.9711H2.68925Z" fill="white"/>
<path d="M3.73069 10.8086C3.74881 10.8571 3.73069 10.9055 3.68225 10.9236L2.51369 11.408C2.47131 11.4262 2.41681 11.402 2.39869 11.3596C2.3805 11.3111 2.39869 11.2627 2.44713 11.2446L3.61569 10.7602C3.65806 10.7421 3.71256 10.7602 3.73069 10.8086V10.8086Z" fill="#F3F3F3"/>
<path d="M3.73675 10.8026C3.75488 10.851 3.73675 10.9055 3.68831 10.9297L2.51975 11.4141C2.49647 11.4228 2.47065 11.422 2.44796 11.4118C2.42527 11.4016 2.40756 11.3828 2.39869 11.3596C2.3805 11.3111 2.39869 11.2566 2.44713 11.2324L3.61569 10.7481C3.63897 10.7393 3.66479 10.7401 3.68748 10.7503C3.71017 10.7605 3.72788 10.7793 3.73675 10.8026V10.8026ZM2.41075 11.3535C2.42894 11.3959 2.47738 11.4141 2.51369 11.4019L3.68225 10.9176C3.72463 10.8994 3.74281 10.851 3.72463 10.8086C3.7065 10.7663 3.65806 10.7481 3.62169 10.7602L2.45313 11.2446C2.41075 11.2627 2.39263 11.3111 2.41075 11.3536V11.3535Z" fill="white"/>
<path d="M2.877 10.5059C2.89513 10.5543 2.87094 10.6028 2.8225 10.6209L2.28969 10.7965C2.24731 10.8146 2.19281 10.7844 2.18069 10.742C2.16256 10.6936 2.18675 10.6451 2.23519 10.627L2.768 10.4514C2.81038 10.4333 2.85881 10.4574 2.877 10.5059Z" fill="#F3F3F3"/>
<path d="M2.883 10.4998C2.90118 10.5483 2.877 10.6028 2.8225 10.6209L2.28968 10.7965C2.24125 10.8146 2.18675 10.7844 2.16856 10.7359C2.15043 10.6875 2.17462 10.633 2.22918 10.6149L2.76193 10.4393C2.81037 10.4272 2.86487 10.4514 2.88306 10.4999L2.883 10.4998ZM2.18075 10.7299C2.19287 10.7723 2.24131 10.7966 2.28368 10.7844L2.8165 10.6088C2.85887 10.5968 2.87706 10.5483 2.86493 10.5059C2.85281 10.4636 2.80437 10.4393 2.762 10.4514L2.22918 10.6271C2.18681 10.6452 2.16862 10.6876 2.18075 10.7299Z" fill="white"/>
<path d="M3.42193 9.78538C3.434 9.83381 3.40375 9.88225 3.35531 9.88831L2.11406 10.1305C2.06562 10.1426 2.02325 10.1063 2.01118 10.0578C1.99906 10.0094 2.02931 9.96094 2.07775 9.95488L3.319 9.71269C3.36743 9.70669 3.41587 9.73694 3.42187 9.78538H3.42193Z" fill="#F3F3F3"/>
<path d="M3.434 9.78538C3.44613 9.83988 3.40981 9.88831 3.36138 9.90038L2.12013 10.1426C2.07169 10.1547 2.02325 10.1184 2.01119 10.0639C1.99906 10.0094 2.03538 9.96094 2.08381 9.94888L3.32506 9.70669C3.37344 9.69456 3.42194 9.73088 3.434 9.78538ZM2.02325 10.0579C2.02931 10.1002 2.07169 10.1305 2.11406 10.1244L3.35531 9.88225C3.39769 9.87619 3.42794 9.82775 3.41588 9.78538C3.40981 9.743 3.36744 9.71269 3.325 9.71875L2.08381 9.96094C2.04144 9.97306 2.01119 10.0154 2.02325 10.0578V10.0579Z" fill="white"/>
<path d="M2.64693 9.31919C2.65293 9.36756 2.62268 9.41 2.57425 9.41606L2.01725 9.48263C1.96875 9.48869 1.92637 9.45238 1.92037 9.40388C1.91431 9.3555 1.94456 9.31313 1.993 9.307L2.55006 9.24044C2.59243 9.23438 2.64087 9.27069 2.64693 9.31919Z" fill="#F3F3F3"/>
<path d="M2.653 9.31919C2.659 9.37362 2.62269 9.42206 2.57425 9.42812L2.01725 9.49475C1.96875 9.50081 1.92038 9.4645 1.91431 9.41C1.90825 9.3555 1.94456 9.30706 1.993 9.301L2.55006 9.23437C2.59844 9.22831 2.64694 9.26469 2.65294 9.31912L2.653 9.31919ZM1.92031 9.40394C1.92638 9.44631 1.96881 9.48269 2.01119 9.47656L2.56819 9.41C2.61056 9.40394 2.64088 9.36156 2.63481 9.31919C2.62875 9.27675 2.58638 9.24044 2.544 9.2465L1.98694 9.31312C1.94456 9.31919 1.91431 9.36156 1.92031 9.40394V9.40394Z" fill="white"/>
<path d="M3.325 8.73181C3.325 8.78031 3.28875 8.82269 3.24025 8.82269H1.97487C1.92643 8.82269 1.89012 8.78031 1.89012 8.73188C1.89012 8.68344 1.92643 8.641 1.97487 8.641H3.24031C3.28875 8.641 3.32512 8.68344 3.32512 8.73188L3.325 8.73181Z" fill="#F3F3F3"/>
<path d="M3.33113 8.73181C3.33113 8.78637 3.28869 8.82869 3.24025 8.82869H1.97488C1.92644 8.82869 1.88406 8.78631 1.88406 8.73181C1.88406 8.67737 1.92644 8.63494 1.97488 8.63494H3.24031C3.28875 8.63494 3.33113 8.67737 3.33113 8.73181ZM1.89613 8.72581C1.89613 8.76819 1.93244 8.81056 1.97488 8.81056H3.24025C3.28263 8.81056 3.319 8.77425 3.319 8.72581C3.319 8.68344 3.28263 8.641 3.24025 8.641H1.97488C1.9325 8.64706 1.89619 8.68344 1.89619 8.72581H1.89613Z" fill="white"/>
<path d="M2.653 8.12031C2.64687 8.16875 2.61056 8.20506 2.56212 8.20506L1.999 8.16269C1.95062 8.15662 1.91431 8.11425 1.92031 8.06581C1.92637 8.01737 1.96275 7.98106 2.01119 7.98106L2.57425 8.02344C2.61662 8.0295 2.653 8.07187 2.653 8.12031Z" fill="#E2E2E2"/>
<path d="M2.659 8.12031C2.65294 8.17481 2.61056 8.21113 2.56213 8.21113L1.999 8.16875C1.95063 8.16269 1.90825 8.12031 1.91431 8.06581C1.92031 8.01138 1.96275 7.975 2.01119 7.975L2.57425 8.01738C2.62269 8.02344 2.659 8.07188 2.659 8.12031ZM1.92031 8.06581C1.91431 8.10819 1.95063 8.15063 1.993 8.15063L2.55613 8.193C2.59844 8.193 2.63481 8.16269 2.64088 8.11425C2.64694 8.07188 2.61056 8.0295 2.56819 8.0295L2.00506 7.98713C1.96275 7.98713 1.92638 8.02344 1.92031 8.06588V8.06581Z" fill="white"/>
<path d="M3.434 7.67831C3.42188 7.72675 3.3795 7.75706 3.33106 7.751L2.08988 7.49669C2.04144 7.48456 2.01113 7.44219 2.02325 7.39375C2.03538 7.34531 2.07775 7.315 2.12619 7.32112L3.36744 7.56937C3.40981 7.58144 3.44006 7.62987 3.434 7.67831V7.67831Z" fill="#F3F3F3"/>
<path d="M3.44007 7.67831C3.42794 7.73281 3.3795 7.76313 3.33107 7.75706L2.08988 7.50881C2.04144 7.49669 2.00513 7.44825 2.01725 7.39381C2.02932 7.33925 2.07775 7.309 2.12619 7.31506L3.36744 7.56331C3.41588 7.57544 3.44613 7.62388 3.44007 7.67831V7.67831ZM2.02932 7.39375C2.02325 7.43613 2.04744 7.4785 2.08988 7.49063L3.33113 7.73888C3.3735 7.74494 3.41588 7.72075 3.428 7.67225C3.434 7.62988 3.40982 7.5875 3.36738 7.57538L2.12625 7.32719C2.07782 7.32113 2.0415 7.35138 2.02938 7.39375H2.02932Z" fill="white"/>
<path d="M2.88912 6.95181C2.88634 6.96334 2.88132 6.97421 2.87433 6.9838C2.86735 6.99339 2.85854 7.00151 2.84842 7.00769C2.8383 7.01387 2.82705 7.018 2.81534 7.01983C2.80362 7.02166 2.79165 7.02117 2.78012 7.01837L2.23519 6.867C2.18675 6.85487 2.16256 6.80644 2.17462 6.758C2.1774 6.74647 2.18243 6.7356 2.18941 6.72601C2.1964 6.71642 2.2052 6.7083 2.21532 6.70212C2.22545 6.69594 2.23669 6.69181 2.24841 6.68998C2.26013 6.68815 2.27209 6.68864 2.28362 6.69144L2.82856 6.84281C2.877 6.85487 2.90119 6.90331 2.88912 6.95175V6.95181Z" fill="#F3F3F3"/>
<path d="M2.89512 6.95181C2.88306 7.00019 2.82856 7.03656 2.78012 7.01838L2.23518 6.867C2.18675 6.85488 2.15643 6.80038 2.16856 6.752C2.18068 6.7035 2.23518 6.66719 2.28362 6.68538L2.82856 6.83675C2.877 6.84888 2.90731 6.89731 2.89512 6.95175V6.95181ZM2.18675 6.75188C2.17462 6.79431 2.19887 6.84275 2.24125 6.85481L2.78618 7.00619C2.82856 7.01831 2.87093 6.99406 2.88306 6.94563C2.89512 6.90325 2.87093 6.85481 2.82856 6.84275L2.28362 6.69138C2.24125 6.68531 2.19887 6.7095 2.18675 6.75194V6.75188Z" fill="white"/>
<path d="M3.74281 6.66119C3.72469 6.70956 3.67012 6.72775 3.62781 6.70956L2.45919 6.22519C2.41681 6.20706 2.39262 6.15256 2.41075 6.11019C2.42894 6.06175 2.48344 6.04356 2.52581 6.06175L3.69437 6.54612C3.74281 6.56425 3.761 6.61875 3.74281 6.66112V6.66119Z" fill="#F3F3F3"/>
<path d="M3.74887 6.66719C3.74001 6.69045 3.72228 6.70925 3.69957 6.71947C3.67687 6.72968 3.65104 6.73048 3.62775 6.72169L2.45918 6.23731C2.41075 6.21919 2.39262 6.16469 2.41075 6.11019C2.41961 6.08692 2.43734 6.06812 2.46005 6.0579C2.48275 6.04769 2.50858 6.04689 2.53187 6.05569L3.70043 6.54006C3.74887 6.56425 3.767 6.61881 3.74887 6.66719V6.66719ZM2.42287 6.11625C2.40475 6.15862 2.42287 6.20706 2.46525 6.22519L3.63381 6.70956C3.67618 6.72775 3.71856 6.7035 3.73675 6.66112C3.75487 6.61875 3.73675 6.57031 3.69437 6.55219L2.52581 6.06781C2.48343 6.05569 2.435 6.07387 2.42287 6.11625V6.11625Z" fill="white"/>
<path d="M3.34925 5.84375C3.32506 5.88613 3.27662 5.90431 3.23425 5.88613L2.73169 5.63188C2.68931 5.61369 2.67112 5.55919 2.69537 5.51075C2.71956 5.46838 2.768 5.45019 2.81037 5.46838L3.31287 5.72269C3.35531 5.74688 3.3735 5.80144 3.34925 5.84375Z" fill="#F3F3F3"/>
<path d="M3.35531 5.84981C3.33106 5.89825 3.27656 5.91644 3.22813 5.89219L2.72563 5.63788C2.67719 5.61369 2.659 5.55919 2.68325 5.51075C2.70744 5.46231 2.762 5.44413 2.81038 5.46838L3.31288 5.72269C3.36138 5.74081 3.3795 5.80144 3.35531 5.84981V5.84981ZM2.70138 5.51681C2.68325 5.55919 2.69538 5.60763 2.73775 5.62581L3.24025 5.88013C3.27663 5.89825 3.32506 5.88013 3.34925 5.84375C3.36738 5.80138 3.35531 5.75294 3.31294 5.73475L2.80425 5.48056C2.76794 5.46244 2.7195 5.4745 2.70131 5.51688L2.70138 5.51681Z" fill="white"/>
<path d="M4.23925 5.72869C4.209 5.77113 4.16056 5.78325 4.11819 5.75294L3.07069 5.05669C3.02837 5.03244 3.02231 4.97794 3.0465 4.93556C3.07075 4.89319 3.12525 4.88106 3.16762 4.91131L4.22112 5.61369C4.25744 5.63794 4.26956 5.69244 4.23925 5.72869Z" fill="#F3F3F3"/>
<path d="M4.24531 5.73475C4.21506 5.77719 4.1545 5.78925 4.11219 5.76506L3.06469 5.06269C3.02231 5.03244 3.01019 4.97794 3.04044 4.92956C3.07075 4.88712 3.13131 4.875 3.17369 4.89925L4.22113 5.60156C4.26956 5.63187 4.27563 5.69238 4.24531 5.73475ZM3.05256 4.93556C3.02838 4.97187 3.03444 5.02637 3.07069 5.05056L4.12425 5.753C4.16056 5.77725 4.209 5.76513 4.23325 5.72881C4.25744 5.69244 4.25138 5.63794 4.21513 5.61375L3.1615 4.91137C3.12519 4.88712 3.07675 4.89925 3.0525 4.93556H3.05256Z" fill="white"/>
<path d="M4.01525 4.85081C3.985 4.88712 3.9305 4.89925 3.89419 4.86894L3.45219 4.52387C3.41588 4.49356 3.40981 4.43906 3.44006 4.40275C3.47031 4.36644 3.52481 4.35431 3.56119 4.38462L4.00312 4.72969C4.0395 4.76 4.04556 4.81444 4.01525 4.85081V4.85081Z" fill="#F3F3F3"/>
<path d="M4.02131 4.85681C3.99106 4.89925 3.9305 4.90531 3.88812 4.875L3.44612 4.52994C3.40375 4.49969 3.39769 4.43913 3.428 4.39681C3.45825 4.35438 3.51881 4.34831 3.56112 4.37863L4.00312 4.72369C4.04556 4.754 4.05162 4.8145 4.02131 4.85694V4.85681ZM3.44006 4.40275C3.40981 4.43906 3.41587 4.4875 3.45219 4.51775L3.89419 4.86294C3.9305 4.88713 3.97894 4.88106 4.00919 4.84475C4.0395 4.80844 4.03344 4.76 3.99712 4.72975L3.55512 4.38456C3.51881 4.36038 3.47031 4.36644 3.44012 4.40275H3.44006Z" fill="white"/>
<path d="M4.91738 4.91131C4.88113 4.94769 4.82656 4.94769 4.79631 4.91131L3.89425 4.02131C3.85794 3.985 3.86394 3.9305 3.89425 3.90019C3.93056 3.86394 3.98506 3.86394 4.01531 3.90019L4.91144 4.79025C4.94775 4.8205 4.94775 4.88106 4.9175 4.91138L4.91738 4.91131Z" fill="#F3F3F3"/>
<path d="M4.91738 4.91744C4.89961 4.93488 4.87571 4.94465 4.85082 4.94465C4.82592 4.94465 4.80202 4.93488 4.78425 4.91744L3.88807 4.02731C3.87058 4.00954 3.86079 3.98561 3.86079 3.96069C3.86079 3.93576 3.87058 3.91183 3.88807 3.89406C3.90583 3.8766 3.92975 3.86681 3.95466 3.86681C3.97957 3.86681 4.00349 3.8766 4.02125 3.89406L4.91738 4.78412C4.95975 4.82044 4.95975 4.881 4.91738 4.91731V4.91744ZM3.90032 3.90619C3.87 3.9365 3.87 3.991 3.90032 4.02119L4.79638 4.91125C4.82669 4.94156 4.88113 4.94156 4.91138 4.91125C4.94169 4.881 4.94169 4.8265 4.91138 4.79625L4.01532 3.90019C3.98507 3.86994 3.93657 3.86994 3.90032 3.90625V3.90619Z" fill="white"/>
<path d="M4.86293 4.00919C4.82662 4.0395 4.77212 4.0395 4.74181 4.00312L4.37243 3.57931C4.34225 3.543 4.34825 3.4885 4.38462 3.45825C4.42087 3.42794 4.47543 3.42794 4.50568 3.46425L4.87506 3.88812C4.90531 3.91837 4.89925 3.97287 4.86293 4.00919Z" fill="#F3F3F3"/>
<path d="M4.869 4.00919C4.82662 4.0455 4.77212 4.0395 4.73575 4.00313L4.36644 3.57931C4.33012 3.543 4.33619 3.48244 4.37856 3.44613C4.42094 3.40975 4.47544 3.41581 4.51175 3.45219L4.88112 3.87594C4.91137 3.91838 4.91137 3.97894 4.869 4.00919V4.00919ZM4.38462 3.45825C4.34825 3.4885 4.34825 3.53694 4.3725 3.57325L4.74187 3.99706C4.77212 4.02738 4.82056 4.03344 4.85687 4.00313C4.89319 3.97288 4.89319 3.92438 4.869 3.88813L4.49962 3.46425C4.46937 3.428 4.42087 3.428 4.38462 3.45825V3.45825Z" fill="white"/>
<path d="M5.73481 4.23931C5.69244 4.26956 5.63794 4.25744 5.61369 4.21506L4.90531 3.16756C4.88106 3.12519 4.89319 3.07069 4.9295 3.0465C4.97187 3.01625 5.02637 3.02837 5.05062 3.07075L5.75294 4.11819C5.78325 4.16056 5.77112 4.21506 5.73481 4.23925V4.23931Z" fill="#F3F3F3"/>
<path d="M5.73481 4.24531C5.69244 4.27563 5.63188 4.26344 5.60156 4.22113L4.89925 3.17363C4.869 3.13125 4.88113 3.07075 4.9295 3.0405C4.97188 3.01019 5.03244 3.02231 5.06275 3.06469L5.76507 4.11213C5.79532 4.16056 5.78319 4.21506 5.73481 4.24531ZM4.9355 3.05256C4.89919 3.07675 4.88707 3.12519 4.91132 3.16156L5.61363 4.209C5.63788 4.24531 5.68632 4.25138 5.72863 4.22713C5.765 4.20294 5.77713 4.1545 5.75288 4.11819L5.05063 3.07675C5.02638 3.0405 4.97188 3.02831 4.93563 3.05256H4.9355Z" fill="white"/>
<path d="M5.86194 3.34319C5.81956 3.36738 5.76506 3.35531 5.74087 3.31294L5.46231 2.8225C5.43812 2.78013 5.45625 2.72563 5.49869 2.70138C5.54106 2.67719 5.59556 2.68925 5.61975 2.73169L5.89825 3.22206C5.91644 3.26444 5.90431 3.31894 5.862 3.34319H5.86194Z" fill="#F3F3F3"/>
<path d="M5.86194 3.34925C5.8135 3.37344 5.759 3.36138 5.73481 3.31894L5.45625 2.82856C5.43206 2.78613 5.44419 2.72563 5.49263 2.70138C5.54106 2.67719 5.59556 2.68925 5.61975 2.73169L5.89825 3.22206C5.9225 3.26444 5.91038 3.31894 5.862 3.34925H5.86194ZM5.49869 2.70744C5.46231 2.73163 5.44419 2.78006 5.46838 2.81644L5.74694 3.30688C5.77113 3.34313 5.81956 3.35531 5.85588 3.33713C5.89225 3.31294 5.91038 3.26444 5.88619 3.22813L5.60763 2.73769C5.5895 2.70144 5.535 2.68319 5.49869 2.70744V2.70744Z" fill="white"/>
<path d="M6.66719 3.74281C6.61881 3.76094 6.57031 3.74281 6.55219 3.70044L6.06175 2.53181C6.04362 2.48944 6.06781 2.43494 6.11019 2.41675C6.15862 2.39862 6.20706 2.41675 6.22519 2.45912L6.71562 3.62769C6.73381 3.67006 6.70962 3.72456 6.66719 3.74269V3.74281Z" fill="#F3F3F3"/>
<path d="M6.66719 3.74888C6.61882 3.767 6.56432 3.74888 6.54007 3.70038L6.04963 2.53188C6.04083 2.50858 6.04163 2.48276 6.05185 2.46005C6.06206 2.43735 6.08086 2.41962 6.10413 2.41075C6.15257 2.39263 6.20707 2.41075 6.23132 2.45919L6.72169 3.62775C6.73988 3.67013 6.71569 3.72463 6.66725 3.74888H6.66719ZM6.11625 2.42288C6.07388 2.441 6.05569 2.4895 6.07388 2.52581L6.56425 3.69431C6.58238 3.73669 6.63082 3.75481 6.67319 3.73669C6.71557 3.71856 6.73382 3.67006 6.71557 3.63375L6.22519 2.46519C6.20094 2.42281 6.15857 2.40463 6.11619 2.42281L6.11625 2.42288Z" fill="white"/>
<path d="M6.96388 2.88306C6.91544 2.90119 6.867 2.87694 6.84888 2.82856L6.67325 2.29569C6.65513 2.25331 6.68538 2.19881 6.72775 2.18675C6.77013 2.17463 6.82463 2.19281 6.84275 2.24125L7.01838 2.77406C7.0365 2.81644 7.01232 2.86488 6.96388 2.883V2.88306Z" fill="#F3F3F3"/>
<path d="M6.96994 2.88906C6.94665 2.89784 6.92084 2.89703 6.89815 2.88682C6.87546 2.8766 6.85774 2.85781 6.84887 2.83456L6.67325 2.30175C6.65512 2.25331 6.68537 2.19888 6.73387 2.18069C6.75716 2.17191 6.78297 2.17272 6.80566 2.18294C6.82835 2.19315 6.84607 2.21194 6.85494 2.23519L7.0305 2.768C7.04262 2.81644 7.01837 2.87094 6.96994 2.88906V2.88906ZM6.73381 2.19281C6.69144 2.20488 6.66719 2.25331 6.67931 2.29569L6.85494 2.82856C6.867 2.87094 6.91544 2.88906 6.95787 2.87694C7.00025 2.86488 7.02444 2.81644 7.01231 2.77406L6.83675 2.24119C6.83366 2.23091 6.82845 2.2214 6.82144 2.21327C6.81444 2.20514 6.8058 2.19858 6.79609 2.19401C6.78638 2.18944 6.77581 2.18697 6.76508 2.18675C6.75435 2.18653 6.7437 2.18858 6.73381 2.19275V2.19281Z" fill="white"/>
<path d="M7.67837 3.434C7.62993 3.44613 7.5815 3.41588 7.57543 3.36738L7.32112 2.12619C7.309 2.07775 7.34537 2.03538 7.39375 2.02325C7.44225 2.01113 7.49062 2.04138 7.49668 2.08988L7.75106 3.33113C7.75706 3.37344 7.72681 3.42188 7.67837 3.434V3.434Z" fill="#F3F3F3"/>
<path d="M7.67837 3.44006C7.62387 3.45219 7.57544 3.41581 7.56331 3.36738L7.309 2.12619C7.29687 2.07775 7.33325 2.02325 7.38169 2.01719C7.43619 2.00506 7.48462 2.04144 7.49669 2.08988L7.75106 3.33113C7.76312 3.3795 7.73287 3.428 7.67837 3.44006V3.44006ZM7.39381 2.02931C7.35137 2.03538 7.32112 2.07775 7.32719 2.12619L7.5815 3.36744C7.58756 3.40975 7.63594 3.44006 7.67837 3.42794C7.72075 3.42188 7.751 3.3795 7.74494 3.33106L7.49062 2.08981C7.47856 2.0475 7.43619 2.02325 7.39375 2.02931H7.39381Z" fill="white"/>
<path d="M8.1385 2.64688C8.09006 2.65294 8.04768 2.62269 8.03556 2.57425L7.96293 2.01719C7.95687 1.96875 7.99318 1.92638 8.04168 1.92031C8.09006 1.91425 8.13243 1.94456 8.14456 1.993L8.21718 2.55C8.22325 2.59844 8.18693 2.64081 8.1385 2.64688V2.64688Z" fill="#F3F3F3"/>
<path d="M8.1385 2.65294C8.084 2.659 8.03556 2.62269 8.0295 2.57419L7.95687 2.01719C7.95081 1.96875 7.98712 1.92031 8.04162 1.91425C8.09612 1.90825 8.14456 1.94456 8.15062 1.993L8.22325 2.55C8.22931 2.59844 8.193 2.64688 8.1385 2.65294V2.65294ZM8.04769 1.92638C8.00531 1.93244 7.96894 1.97481 7.975 2.01719L8.04769 2.57425C8.05375 2.61663 8.09612 2.64688 8.1385 2.64081C8.18087 2.63481 8.21725 2.59238 8.21119 2.55L8.1385 1.993C8.13244 1.95063 8.09006 1.92031 8.04769 1.92638V1.92638Z" fill="white"/>
<path d="M8.79244 15.9127C12.7516 15.9127 15.9612 12.7031 15.9612 8.74394C15.9612 4.78475 12.7516 1.57519 8.79244 1.57519C4.83325 1.57519 1.62369 4.78475 1.62369 8.74394C1.62369 12.7031 4.83325 15.9127 8.79244 15.9127Z" fill="url(#paint2_linear)" fill-opacity="0.2"/>
<g filter="url(#filter1_d)">
<path d="M13.7573 4.19688L7.975 7.90238H7.96894V7.90838L7.96288 7.91444L4.35438 13.8663L9.65825 9.59769L9.66432 9.59169V9.58563L13.7573 4.19694L13.7573 4.19688Z" fill="black" fill-opacity="0.05"/>
</g>
<path d="M13.6482 3.85175L7.93262 7.91444L9.62794 9.59762L13.6482 3.85175" fill="#CD151E"/>
<path d="M7.93869 7.90237L8.79244 8.74394L13.6483 3.85175L7.93869 7.90237V7.90237Z" fill="#FA5153"/>
<path d="M7.93869 7.90238L9.634 9.5855L3.91837 13.6483L7.93869 7.90231V7.90238Z" fill="#ACACAC"/>
<path d="M3.91837 13.6483L8.79237 8.74394L7.93862 7.90231L3.91837 13.6483Z" fill="#EEEEEE"/>
<defs>
<filter id="filter0_d" x="0.75" y="0.875" width="16" height="16" filterUnits="userSpaceOnUse" color-interpolation-filters="sRGB">
<feFlood flood-opacity="0" result="BackgroundImageFix"/>
<feColorMatrix in="SourceAlpha" type="matrix" values="0 0 0 0 0 0 0 0 0 0 0 0 0 0 0 0 0 0 127 0"/>
<feOffset dy="0.125"/>
<feGaussianBlur stdDeviation="0.125"/>
<feColorMatrix type="matrix" values="0 0 0 0 0 0 0 0 0 0 0 0 0 0 0 0 0 0 0.266007 0"/>
<feBlend mode="normal" in2="BackgroundImageFix" result="effect1_dropShadow"/>
<feBlend mode="normal" in="SourceGraphic" in2="effect1_dropShadow" result="shape"/>
</filter>
<filter id="filter1_d" x="4.10438" y="4.00938" width="9.90294" height="10.1694" filterUnits="userSpaceOnUse" color-interpolation-filters="sRGB">
<feFlood flood-opacity="0" result="BackgroundImageFix"/>
<feColorMatrix in="SourceAlpha" type="matrix" values="0 0 0 0 0 0 0 0 0 0 0 0 0 0 0 0 0 0 127 0"/>
<feOffset dy="0.0625"/>
<feGaussianBlur stdDeviation="0.125"/>
<feColorMatrix type="matrix" values="0 0 0 0 0 0 0 0 0 0 0 0 0 0 0 0 0 0 1 0"/>
<feBlend mode="normal" in2="BackgroundImageFix" result="effect1_dropShadow"/>
<feBlend mode="normal" in="SourceGraphic" in2="effect1_dropShadow" result="shape"/>
</filter>
<linearGradient id="paint0_linear" x1="8.75" y1="16.5" x2="8.75" y2="1" gradientUnits="userSpaceOnUse">
<stop offset="0.25" stop-color="#DBDBDA"/>
<stop offset="1" stop-color="white"/>
</linearGradient>
<radialGradient id="paint1_radial" cx="0" cy="0" r="1" gradientUnits="userSpaceOnUse" gradientTransform="translate(9.75721 7.17531) scale(8.75046)">
<stop stop-color="#2ABCE1"/>
<stop offset="0.11363" stop-color="#2ABBE1"/>
<stop offset="1" stop-color="#3375F8"/>
</radialGradient>
<linearGradient id="paint2_linear" x1="8.65623" y1="6.69411" x2="5.31029" y2="12.6971" gradientUnits="userSpaceOnUse">
<stop stop-opacity="0"/>
<stop offset="1"/>
</linearGradient>
</defs>
</svg>
